<?xml version="1.0" standalone="no"?>
<svg xmlns="http://www.w3.org/2000/svg" viewBox="0 0 1440 320">
  <!-- Define the linear gradient -->
  <defs>
    <linearGradient id="gradient" x1="0%" y1="0%" x2="100%" y2="0%">
      <stop offset="0%" style="stop-color:#8b5cf6;stop-opacity:1" /> <!-- violet-500 -->
      <stop offset="100%" style="stop-color:#d946ef;stop-opacity:1" /> <!-- fuchsia-500 -->
    </linearGradient>
  </defs>

  <!-- Apply the gradient to the path -->
  <path fill="url(#gradient)" fill-opacity="1" d="M0,0L30,21.3C60,43,120,85,180,122.7C240,160,300,192,360,218.7C420,245,480,267,540,261.3C600,256,660,224,720,229.3C780,235,840,277,900,266.7C960,256,1020,192,1080,192C1140,192,1200,256,1260,272C1320,288,1380,256,1410,240L1440,224L1440,0L1410,0C1380,0,1320,0,1260,0C1200,0,1140,0,1080,0C1020,0,960,0,900,0C840,0,780,0,720,0C660,0,600,0,540,0C480,0,420,0,360,0C300,0,240,0,180,0C120,0,60,0,30,0L0,0Z"></path>
</svg>
